<?xml version="1.0" encoding="UTF-8" standalone="no"?>
<!DOCTYPE svg PUBLIC "-//W3C//DTD SVG 1.1//EN" "http://www.w3.org/Graphics/SVG/1.1/DTD/svg11.dtd">
<svg width="100%" height="100%" viewBox="0 0 300 300" version="1.1" xmlns="http://www.w3.org/2000/svg" xmlns:xlink="http://www.w3.org/1999/xlink" xml:space="preserve" xmlns:serif="http://www.serif.com/" style="fill-rule:evenodd;clip-rule:evenodd;stroke-linejoin:round;stroke-miterlimit:2;">
    <g transform="matrix(1,0,0,1,-100,-100)">
        <g transform="matrix(1,0,0,1,-100,-200)">
            <path d="M500,315L500,585C500,593.279 493.279,600 485,600L215,600C206.721,600 200,593.279 200,585L200,315C200,306.721 206.721,300 215,300L485,300C493.279,300 500,306.721 500,315Z" style="fill:rgb(38,38,38);"/>
            <path d="M220,592C220,588.817 218.736,585.765 216.485,583.515C214.235,581.264 211.183,580 208,580L200,580L200,320L208,320C211.183,320 214.235,318.736 216.485,316.485C218.736,314.235 220,311.183 220,308L220,300L480,300L480,308C480,311.183 481.264,314.235 483.515,316.485C485.765,318.736 488.817,320 492,320L500,320L500,580L492,580C488.817,580 485.765,581.264 483.515,583.515C481.264,585.765 480,588.817 480,592L480,600L220,600L220,592Z" style="fill:rgb(64,64,64);"/>
            <g>
                <g transform="matrix(0.857143,0,0,0.857143,70,44.2857)">
                    <circle cx="490" cy="310" r="7" style="fill:rgb(115,115,115);"/>
                </g>
                <g transform="matrix(0.857143,0,0,0.857143,70,324.286)">
                    <circle cx="490" cy="310" r="7" style="fill:rgb(115,115,115);"/>
                </g>
                <g transform="matrix(0.857143,0,0,0.857143,-210,324.286)">
                    <circle cx="490" cy="310" r="7" style="fill:rgb(115,115,115);"/>
                </g>
                <g transform="matrix(0.857143,0,0,0.857143,-210,44.2857)">
                    <circle cx="490" cy="310" r="7" style="fill:rgb(115,115,115);"/>
                </g>
            </g>
            <g transform="matrix(1.11262,0,0,1.11262,-39.4179,-50.6802)">
                <path d="M470,342L470,558C470,564.623 464.623,570 458,570L242,570C235.377,570 230,564.623 230,558L230,342C230,335.377 235.377,330 242,330L458,330C464.623,330 470,335.377 470,342Z" style="fill:rgb(38,38,38);"/>
            </g>
            <g transform="matrix(1.04963,0,0,1.04963,-17.3697,-22.3325)">
                <path d="M350,335.674C413.098,335.674 464.326,386.902 464.326,450C464.326,513.098 413.098,564.326 350,564.326C286.902,564.326 235.674,513.098 235.674,450C235.674,386.902 286.902,335.674 350,335.674ZM350,350.107C294.868,350.107 250.107,394.868 250.107,450C250.107,505.132 294.868,549.893 350,549.893C405.132,549.893 449.893,505.132 449.893,450C449.893,394.868 405.132,350.107 350,350.107Z" style="fill:rgb(166,166,166);"/>
            </g>
        </g>
    </g>
</svg>
