<?xml version="1.0" encoding="UTF-8" standalone="no"?>
<!DOCTYPE svg PUBLIC "-//W3C//DTD SVG 1.1//EN" "http://www.w3.org/Graphics/SVG/1.1/DTD/svg11.dtd">
<svg width="100%" height="100%" viewBox="0 0 300 250" version="1.1" xmlns="http://www.w3.org/2000/svg" xmlns:xlink="http://www.w3.org/1999/xlink" xml:space="preserve" xmlns:serif="http://www.serif.com/" style="fill-rule:evenodd;clip-rule:evenodd;stroke-linejoin:round;stroke-miterlimit:2;">
    <g transform="matrix(1,0,0,1,0,-10)">
        <g transform="matrix(1,0,0,1,50,60)">
            <path d="M0.255,107.183L-50,107.183L-50,92.817L0.255,92.817C3.773,43.345 43.345,3.773 92.817,0.255L92.817,-50L107.183,-50L107.183,0.255C156.655,3.773 196.227,43.345 199.745,92.817L250,92.817L250,107.183L199.745,107.183C196.058,159.027 152.776,200 100,200C47.224,200 3.942,159.027 0.255,107.183ZM100,14.366C52.737,14.366 14.366,52.737 14.366,100C14.366,147.263 52.737,185.634 100,185.634C147.263,185.634 185.634,147.263 185.634,100C185.634,52.737 147.263,14.366 100,14.366ZM100,81.532C110.193,81.532 118.468,89.807 118.468,100C118.468,110.193 110.193,118.468 100,118.468C89.807,118.468 81.532,110.193 81.532,100C81.532,89.807 89.807,81.532 100,81.532Z" style="fill:rgb(67,242,13);"/>
        </g>
    </g>
</svg>
